<?xml version="1.0" standalone="no"?>
<!DOCTYPE svg PUBLIC "-//W3C//DTD SVG 20010904//EN"
 "http://www.w3.org/TR/2001/REC-SVG-20010904/DTD/svg10.dtd">
<svg version="1.0" xmlns="http://www.w3.org/2000/svg"
 width="1002.000000pt" height="1002.000000pt" viewBox="0 0 1002.000000 1002.000000"
 preserveAspectRatio="xMidYMid meet">
<metadata>
Created by potrace 1.11, written by Peter Selinger 2001-2013
</metadata>
<g transform="translate(0.000000,1002.000000) scale(0.100000,-0.100000)"
fill="#000000" stroke="none">
<path d="M3736 10005 c-49 -17 -90 -57 -119 -114 l-22 -46 -1 -740 c0 -407 -2
-950 -4 -1207 -3 -447 -2 -467 17 -500 34 -58 54 -61 478 -64 578 -4 2276 -7
2665 -5 292 2 354 0 405 -14 95 -26 151 -79 177 -170 13 -46 13 -51 3 -930 -9
-875 -10 -2440 -2 -2489 12 -63 48 -119 92 -141 36 -18 58 -20 230 -18 235 2
1744 2 1990 0 151 -1 189 1 233 17 63 21 101 65 119 133 10 38 13 709 13 3068
0 3357 6 3086 -68 3156 -32 31 -50 38 -108 48 -50 8 -831 13 -2894 15 -1554 2
-2901 6 -2995 9 -129 4 -179 2 -209 -8z"/>
<path d="M221 9978 c-101 -17 -160 -67 -192 -163 -14 -40 -15 -988 -10 -7145
0 -745 0 -1614 -2 -1930 l-2 -575 28 -50 c35 -63 60 -81 139 -101 57 -15 431
-16 4313 -10 4341 7 5292 11 5333 20 77 17 117 50 134 111 8 28 12 240 13 690
1 358 5 884 9 1170 l7 520 -23 45 c-14 26 -37 53 -58 65 -34 19 -48 20 -350
16 -501 -7 -6648 -6 -6716 1 -126 13 -166 58 -179 203 -4 33 -7 1334 -9 2891
-3 2632 -5 2835 -21 2883 -11 33 -29 61 -52 80 -59 49 -106 56 -318 52 -541
-11 -950 -2 -1007 22 -81 34 -136 110 -144 201 -9 97 26 126 197 168 l124 31
480 1 c510 2 530 4 604 53 88 57 110 128 116 373 3 91 7 179 9 195 5 47 -18
122 -45 144 -26 22 -77 36 -124 33 -94 -4 -1821 -1 -1930 4 -220 10 -278 10
-324 2z m2054 -8312 c401 -18 1538 -23 2195 -10 703 13 1249 9 1430 -11 19 -2
80 -7 135 -10 55 -3 125 -8 155 -11 30 -3 82 -7 115 -9 406 -25 665 -25 870 1
17 2 80 6 140 9 61 4 128 8 150 10 22 3 155 7 295 10 227 4 264 3 340 -14 196
-44 360 -129 498 -257 l64 -59 -3621 0 c-2523 0 -3621 3 -3621 11 0 13 93 128
134 167 51 47 113 87 193 124 109 50 185 63 328 57 66 -3 156 -6 200 -8z"/>
</g>
</svg>
