<svg xmlns="http://www.w3.org/2000/svg" viewBox="0 0 57 57.11"><path d="M55.2.21c-5.4 0-10.9-.1-16.5-.1H22.1c-1.4 0-1.7.4-1.7 1.7.1 3.6 0 7.2 0 10.9 0 2.8-.4 2.6 2.5 2.6 5.6 0 11.2.1 16.8 0 1.8 0 2.2.6 2.1 2.3-.1 5.9-.1 11.7-.1 17.6 0 1.2.3 1.7 1.6 1.6q6-.15 12 0c1.3 0 1.6-.4 1.6-1.6V1.91c0-1.3-.3-1.8-1.7-1.7z"/><path d="M55.6 42c-2.4.1-4.9.1-7.4.1H17.6c-2.5 0-2.5 0-2.5-2.6 0-10.1-.1-20.1 0-30.2.1-1.7-.4-2.2-2.1-2.1a46.84 46.84 0 0 1-5.3 0 1.32 1.32 0 0 1-1.4-1.1c-.2-.9.6-1 1.2-1.1A3.89 3.89 0 0 1 9 4.81c1.4 0 2.8.1 4.2 0 2.3-.1 1.6-2 1.8-3.3.2-1.6-1-1.2-1.8-1.2-3.7-.1-7.4.1-11.1-.1C.3.11 0 .71 0 2.41v26c.1 9 .1 18 0 26.9 0 1.3.3 1.8 1.7 1.8 17.9 0 35.8 0 53.6-.1 1 0 1.5-.1 1.5-1.3 0-4.1 0-8.3.1-12.4 0-1-.3-1.31-1.3-1.31zM8 49.61a4.1 4.1 0 0 1 4.4-2c5.7.2 11.3.1 17 0 3.5-.1 6.9.5 10.3.4a54.41 54.41 0 0 1 5.7-.3 6 6 0 0 1 3.9 1.9z"/><path d="M55.3.11H38.7c-5.5 0-11 .1-16.5-.1-1.4-.1-1.7.4-1.7 1.7.1 3.6 0 7.3 0 10.9 0 2.8-.5 2.6 2.5 2.6 5.6 0 11.2.1 16.8 0 1.8 0 2.1.6 2.1 2.3-.1 5.9 0 11.7-.1 17.6 0 1.2.3 1.6 1.6 1.6q6-.15 12 0c1.3.1 1.6-.3 1.6-1.6V1.81c0-1.3-.3-1.7-1.7-1.7z"/></svg>
