<?xml version="1.0" standalone="no"?>
<!DOCTYPE svg PUBLIC "-//W3C//DTD SVG 20010904//EN"
 "http://www.w3.org/TR/2001/REC-SVG-20010904/DTD/svg10.dtd">
<svg version="1.0" xmlns="http://www.w3.org/2000/svg"
 width="700.000000pt" height="700.000000pt" viewBox="0 0 700.000000 700.000000"
 preserveAspectRatio="xMidYMid meet">
<metadata>
Created by potrace 1.11, written by Peter Selinger 2001-2013
</metadata>
<g transform="translate(0.000000,700.000000) scale(0.100000,-0.100000)"
fill="#000000" stroke="none">
<path d="M820 6120 c-200 -21 -375 -140 -461 -315 -73 -149 -69 12 -69 -2305
0 -2317 -4 -2156 69 -2305 46 -94 127 -180 223 -238 77 -46 138 -65 248 -77
113 -13 5227 -13 5340 0 110 12 171 31 248 77 141 86 244 229 277 388 22 105
22 4205 0 4310 -33 159 -136 302 -277 388 -77 46 -138 65 -248 77 -98 11
-5249 11 -5350 0z m5300 -2620 l0 -2040 -2620 0 -2620 0 0 2040 0 2040 2620 0
2620 0 0 -2040z"/>
<path d="M3207 5029 l-288 -359 582 0 582 0 -20 23 c-11 12 -140 174 -287 360
-148 185 -271 337 -275 336 -3 0 -136 -162 -294 -360z"/>
<path d="M1383 3788 l-362 -291 362 -288 362 -288 3 289 c1 160 1 420 0 580
l-3 290 -362 -292z"/>
<path d="M5250 3499 c0 -464 3 -579 13 -572 6 6 170 136 364 290 l352 280
-346 279 c-191 153 -355 285 -365 292 -17 13 -18 -9 -18 -569z"/>
<path d="M3207 1971 c158 -198 291 -360 294 -360 4 -1 127 151 275 337 147
185 276 347 287 360 l20 22 -582 0 -582 0 288 -359z"/>
</g>
</svg>
